<svg width="36" height="32" viewBox="0 0 36 32" fill="none" xmlns="http://www.w3.org/2000/svg">
<path d="M35.5427 0H35.7632C35.1568 0.617143 34.6281 1.30612 34.0184 1.91673C27.0681 8.84898 20.88 16.5845 15.8303 25.0286C14.5524 27.1902 13.4659 29.4596 12.3373 31.7029C9.22703 27.8498 6.62595 23.569 3.11351 20.049C2.01405 18.8408 0.473514 17.9102 0 16.2449V14.7788C0.450811 13.7796 1.09297 12.7445 2.17297 12.3559C3.32757 12.0229 4.68973 12.111 5.62054 12.9502C8.28 15.2947 10.1773 18.3314 12.1719 21.2278C16.7514 13.6229 23.1405 7.0498 30.8238 2.60898C32.3838 1.71429 34.0249 0.969796 35.5427 0Z" fill="#CA002B"/>
</svg>
