<svg width="29" height="26" viewBox="0 0 29 26" fill="none" xmlns="http://www.w3.org/2000/svg">
<g clip-path="url(#clip0_201_2)">
<path d="M22.34 25.004C20.772 25.004 19.484 24.444 18.476 23.324C17.412 22.26 16.88 20.916 16.88 19.292C16.88 18.452 16.992 17.64 17.216 16.856C17.384 16.072 17.748 14.868 18.308 13.244L22.256 1.568L27.548 1.568L24.44 14.084C25.504 14.476 26.372 15.12 27.044 16.016C27.66 16.968 27.968 18.06 27.968 19.292C27.968 20.972 27.436 22.344 26.372 23.408C25.308 24.472 23.964 25.004 22.34 25.004ZM6.66876 25.004C5.10076 25.004 3.81276 24.444 2.80475 23.324C1.74076 22.26 1.20876 20.916 1.20876 19.292C1.20876 18.452 1.32076 17.64 1.54476 16.856C1.71276 16.072 2.07676 14.868 2.63676 13.244L6.58476 1.568L11.8768 1.568L8.76876 14.084C9.83276 14.476 10.7008 15.12 11.3728 16.016C11.9888 16.968 12.2968 18.06 12.2968 19.292C12.2968 20.972 11.7648 22.344 10.7008 23.408C9.63676 24.472 8.29276 25.004 6.66876 25.004Z" fill="black"/>
</g>
<defs>
<clipPath id="clip0_201_2">
<rect width="29" height="26" fill="white"/>
</clipPath>
</defs>
</svg>
