<svg width="11" height="10" viewBox="0 0 11 10" fill="none" xmlns="http://www.w3.org/2000/svg">
<path fill-rule="evenodd" clip-rule="evenodd" d="M9.82102 5.19608L5.9321 8.83263C5.69346 9.05579 5.30654 9.05579 5.0679 8.83263L1.17898 5.19608C0.940339 4.97293 0.940339 4.61112 1.17898 4.38796C1.41763 4.1648 1.80454 4.1648 2.04319 4.38796L4.88892 7.04902L4.88892 1.57143C4.88892 1.25584 5.16251 1 5.5 1C5.83749 1 6.11108 1.25584 6.11108 1.57143L6.11108 7.04902L8.95681 4.38796C9.19546 4.1648 9.58237 4.1648 9.82102 4.38796C10.0597 4.61112 10.0597 4.97293 9.82102 5.19608Z" fill="white"/>
<path d="M5.9321 8.83263L5.5906 8.46743L5.9321 8.83263ZM9.82102 5.19608L10.1625 5.56129L9.82102 5.19608ZM5.0679 8.83263L5.4094 8.46743L5.4094 8.46743L5.0679 8.83263ZM1.17898 5.19608L0.837477 5.56129L1.17898 5.19608ZM2.04319 4.38796L2.38469 4.02276L2.04319 4.38796ZM4.88892 7.04902L4.54741 7.41423L5.38892 8.20112L5.38892 7.04902L4.88892 7.04902ZM6.11108 7.04902L5.61108 7.04902L5.61108 8.20112L6.45259 7.41423L6.11108 7.04902ZM8.95681 4.38796L8.61531 4.02276L8.95681 4.38796ZM6.27361 9.19784L10.1625 5.56129L9.47951 4.83088L5.5906 8.46743L6.27361 9.19784ZM4.72639 9.19784C5.15724 9.60072 5.84276 9.60072 6.27361 9.19784L5.5906 8.46743C5.57084 8.4859 5.53941 8.5 5.5 8.5C5.46059 8.5 5.42916 8.4859 5.4094 8.46743L4.72639 9.19784ZM0.837477 5.56129L4.72639 9.19784L5.4094 8.46743L1.52049 4.83088L0.837477 5.56129ZM0.837478 4.02276C0.387507 4.44353 0.387507 5.14052 0.837477 5.56129L1.52049 4.83088C1.50242 4.81398 1.5 4.80004 1.5 4.79202C1.5 4.784 1.50242 4.77006 1.52049 4.75317L0.837478 4.02276ZM2.38469 4.02276C1.95385 3.61987 1.26832 3.61987 0.837478 4.02276L1.52049 4.75317C1.54024 4.73469 1.57167 4.72059 1.61108 4.72059C1.6505 4.72059 1.68192 4.73469 1.70168 4.75317L2.38469 4.02276ZM5.23042 6.68382L2.38469 4.02276L1.70168 4.75317L4.54741 7.41423L5.23042 6.68382ZM4.38892 1.57143L4.38892 7.04902L5.38892 7.04902L5.38892 1.57143L4.38892 1.57143ZM5.5 0.5C4.91849 0.5 4.38892 0.948625 4.38892 1.57143L5.38892 1.57143C5.38892 1.56299 5.39165 1.54917 5.4094 1.53257C5.42773 1.51543 5.45856 1.5 5.5 1.5L5.5 0.5ZM6.61108 1.57143C6.61108 0.948625 6.08151 0.5 5.5 0.5L5.5 1.5C5.54144 1.5 5.57227 1.51543 5.5906 1.53257C5.60835 1.54917 5.61108 1.56299 5.61108 1.57143L6.61108 1.57143ZM6.61108 7.04902L6.61108 1.57143L5.61108 1.57143L5.61108 7.04902L6.61108 7.04902ZM8.61531 4.02276L5.76958 6.68382L6.45259 7.41423L9.29832 4.75317L8.61531 4.02276ZM10.1625 4.02276C9.73168 3.61987 9.04615 3.61987 8.61531 4.02276L9.29832 4.75317C9.31808 4.73469 9.3495 4.72059 9.38892 4.72059C9.42833 4.72059 9.45975 4.73469 9.47951 4.75317L10.1625 4.02276ZM10.1625 5.56129C10.6125 5.14052 10.6125 4.44353 10.1625 4.02276L9.47951 4.75317C9.49758 4.77006 9.5 4.784 9.5 4.79202C9.5 4.80004 9.49758 4.81399 9.47951 4.83088L10.1625 5.56129Z" fill="currentColor"/>
</svg>
